PathFileType  4	(X/Y/Z) C:\Users\antoi\Documents\MyRepositories\mobilecap\ResultsAnalysis
DataRate	CameraRate	NumFrames	NumMarkers	Units	OrigDataRate	OrigDataStartFrame	OrigNumFrames
100.0	100.0	4	51	mm	100.0	121	138
Frame#	Time	r_knee			r_shank_antsup			r_ankle			r_calc			r_5meta			r_toe			L_knee			L_shank_antsup			L_ankle			L_calc			L_5meta			L_toe			r_sh2			r_sh3			r_sh4			L_sh2			L_sh3			r_thigh1			r_thigh2			r_thigh3			r_thigh4			r_thigh5			L_thigh1			L_thigh2			L_thigh3			L_thigh4			r.ASIS			r.PSIS			L.ASIS			L.PSIS			C7			R_Shoulder			L_Shoulder			R_Sternum			L_Sternum			R_humerus			R_elbow_med			R_elbow_lat			R_forearm			R_wrist_radius			R_wrist_ulna			L_humerus			L_elbow_med			L_elbow_lat			L_forearm			L_wrist_radius			L_wrist_ulna			R_HJC			L_HJC			R_HJC_reg			L_HJC_reg			
		X1	Y1	Z1	X2	Y2	Z2	X3	Y3	Z3	X4	Y4	Z4	X5	Y5	Z5	X6	Y6	Z6	X7	Y7	Z7	X8	Y8	Z8	X9	Y9	Z9	X10	Y10	Z10	X11	Y11	Z11	X12	Y12	Z12	X13	Y13	Z13	X14	Y14	Z14	X15	Y15	Z15	X16	Y16	Z16	X17	Y17	Z17	X18	Y18	Z18	X19	Y19	Z19	X20	Y20	Z20	X21	Y21	Z21	X22	Y22	Z22	X23	Y23	Z23	X24	Y24	Z24	X25	Y25	Z25	X26	Y26	Z26	X27	Y27	Z27	X28	Y28	Z28	X29	Y29	Z29	X30	Y30	Z30	X31	Y31	Z31	X32	Y32	Z32	X33	Y33	Z33	X34	Y34	Z34	X35	Y35	Z35	X36	Y36	Z36	X37	Y37	Z37	X38	Y38	Z38	X39	Y39	Z39	X40	Y40	Z40	X41	Y41	Z41	X42	Y42	Z42	X43	Y43	Z43	X44	Y44	Z44	X45	Y45	Z45	X46	Y46	Z46	X47	Y47	Z47	X48	Y48	Z48	X49	Y49	Z49	X50	Y50	Z50	X51	Y51	Z51	

121	1.20000000	1456.38490	488.15722	-43.72056	1508.05027	433.33785	-65.15286	1520.74344	90.41723	-81.99988	1458.19995	64.19144	-123.67070	1629.20854	42.46517	-51.08784	1677.27462	79.59157	-103.12752	1219.76865	477.09929	-307.07715	1198.10456	377.44858	-314.57792	967.35840	166.63724	-279.17409	890.48188	163.61669	-230.96258	1019.74308	48.11466	-316.85892	1071.32563	52.21970	-265.96446	1513.36555	317.99020	-46.36146	1430.17802	426.25216	-33.71410	1438.83772	313.36481	-37.24876	1128.21603	438.45591	-313.00412	1057.46921	337.88649	-314.80771	1426.18775	810.03976	-9.34912	1452.88955	698.31710	-21.14551	1408.77894	663.59396	12.00636	1321.02121	779.42480	16.96068	1352.98311	668.24258	2.91352	1305.62803	731.23432	-362.34135	1289.56499	597.33444	-334.63392	1199.28299	751.44712	-312.60867	1187.07292	613.47484	-293.58653	1412.32369	952.53432	-55.30267	1217.43739	992.44640	-113.91508	1399.94213	921.06846	-304.27455	1204.59888	991.06029	-214.46182	1210.40953	1392.22829	-200.97768	1308.47308	1366.46565	-17.61036	1306.53455	1357.26664	-377.77633	1352.37624	1368.29590	-176.02368	1356.13774	1368.99091	-216.31622	1304.76007	1230.40519	46.69334	1237.69275	1024.23819	2.03082	1243.04359	1042.67480	71.28012	1292.65998	916.91876	108.81502	1305.56080	783.22829	132.68528	1277.54898	783.42471	150.70080	1361.77130	1251.58059	-429.15983	1411.84582	1019.94939	-368.20991	1431.76935	1049.65709	-441.33440	1543.19954	1029.07895	-416.48958	1681.35560	958.96793	-391.39663	1671.80667	935.80342	-414.53901	1332.45922	874.09743	-62.69980	1313.88214	856.57342	-267.59000	1342.38339	866.44158	-79.72745	1321.38242	864.17697	-244.20269	
122	1.21000000	1466.04720	488.94458	-42.59652	1516.71912	432.91061	-64.49733	1522.26069	90.12742	-82.17676	1458.95604	64.60715	-123.92174	1629.90536	41.19236	-51.23300	1678.63636	76.96015	-103.76803	1238.86293	475.84769	-308.04440	1214.25467	376.90842	-315.88209	977.35865	173.41733	-280.42563	901.66127	175.59031	-231.63313	1022.36118	50.81616	-316.65689	1074.52194	52.23131	-266.34879	1519.98278	317.40759	-46.02815	1438.88639	427.15603	-32.66046	1445.42481	314.20362	-36.44870	1146.46128	440.49796	-313.51749	1072.60640	342.00533	-315.32646	1438.25016	811.40710	-7.55295	1464.30145	699.45179	-19.27186	1420.07668	665.00242	13.84621	1332.88300	781.25082	19.03924	1364.21754	669.90632	4.82167	1320.21742	731.34080	-360.72049	1306.71390	596.88509	-334.42968	1213.86138	749.49295	-310.71922	1204.27104	610.90261	-292.70567	1424.81851	954.27712	-53.85574	1229.66179	993.64233	-112.14012	1412.21824	922.07427	-302.48986	1216.68721	991.48895	-212.64797	1221.98990	1392.72240	-198.45202	1321.23185	1367.18487	-15.74560	1316.57806	1358.20670	-376.16137	1363.98491	1369.27917	-174.38788	1367.36850	1370.06331	-214.64510	1318.27373	1230.95838	48.30462	1250.86805	1024.98941	3.40377	1256.73977	1043.22743	72.82076	1305.75672	917.30231	109.95076	1317.66482	782.92414	133.38821	1289.98675	783.88209	151.93275	1371.20576	1251.94903	-427.37902	1418.59540	1019.60949	-365.79637	1438.34950	1048.82898	-439.40371	1549.64545	1026.40143	-414.25127	1686.37828	953.72352	-388.77342	1676.49347	930.75148	-411.97629	1345.20491	875.64199	-60.72750	1326.35561	857.36074	-265.52670	1354.94710	868.59166	-77.57157	1333.74082	865.07393	-241.84649	
123	1.22000000	1475.41969	489.75838	-41.50150	1525.09105	432.50754	-63.75080	1523.40272	89.97106	-82.37522	1459.43508	64.89562	-124.11549	1630.38073	40.38762	-51.29393	1679.64485	74.92902	-104.32913	1258.93451	474.45971	-309.52600	1231.44458	376.42492	-317.46125	988.67577	180.38552	-281.89908	914.73902	188.25285	-232.43764	1025.36176	54.14339	-316.42774	1078.01123	52.53418	-266.82694	1526.15673	316.86334	-45.66219	1447.21119	428.11595	-31.78909	1451.53106	315.14421	-35.85541	1165.84792	442.58144	-314.32226	1088.94083	346.21494	-316.02959	1450.30354	812.72024	-5.53265	1475.51656	700.51832	-17.26872	1431.06850	666.38903	15.67606	1344.62285	783.15242	21.11377	1375.20161	671.61857	6.69058	1335.11543	731.47445	-359.25711	1324.46411	596.43807	-334.50866	1228.79177	747.19280	-308.85971	1222.10203	608.04472	-292.16693	1437.06914	956.03222	-52.18848	1241.67335	994.81989	-110.43956	1424.30637	923.10066	-300.53277	1228.61253	991.93253	-210.91507	1233.47607	1393.32362	-195.92287	1333.98200	1367.98614	-13.91290	1326.45583	1359.16197	-374.51367	1375.50586	1370.32179	-172.79239	1378.50914	1371.20235	-213.02620	1331.89772	1231.58959	49.89091	1264.14796	1025.78287	4.79548	1270.62218	1043.85883	74.36887	1319.19591	917.76109	111.09807	1330.24000	782.74068	134.08274	1302.85002	784.38893	153.17905	1380.24516	1252.31331	-425.75195	1424.97401	1019.39952	-363.66461	1444.71271	1048.11604	-437.62258	1555.77248	1023.57885	-412.14656	1690.93793	948.04445	-386.17921	1680.62416	925.34768	-409.54151	1357.65120	877.20379	-58.67243	1338.70562	858.15146	-263.39040	1367.27043	870.69760	-75.26617	1345.93780	865.98226	-239.37380	
124	1.23000000	1484.40549	490.50641	-40.40905	1533.08693	432.04335	-62.84312	1524.24213	89.88722	-82.56707	1459.72268	65.08297	-124.26468	1630.68858	39.90660	-51.27319	1680.37491	73.37993	-104.77655	1279.82739	472.96799	-311.38029	1249.62702	376.07036	-319.23905	1001.31746	187.48749	-283.57393	929.78116	201.41878	-233.38615	1028.84933	58.19218	-316.17161	1081.94143	53.29579	-267.45925	1531.84001	316.28616	-45.20376	1455.06678	429.03650	-31.04337	1457.12323	316.09659	-35.39587	1186.30606	444.60045	-315.30483	1106.41648	350.52139	-316.85603	1462.28515	813.87467	-3.28699	1486.44808	701.42681	-15.15911	1441.60309	667.64095	17.47479	1356.16542	785.05808	23.15902	1385.85180	673.32036	8.50955	1350.20232	731.60959	-358.01052	1342.65270	596.00775	-334.85333	1243.99391	744.56494	-306.98660	1240.41060	604.98147	-291.94918	1449.08325	957.78927	-50.33842	1253.46714	995.92922	-108.86430	1436.16417	924.09943	-298.44107	1240.33098	992.35185	-209.31062	1244.85005	1394.01593	-193.40921	1346.69581	1368.84746	-12.12515	1336.21028	1360.10628	-372.82054	1386.94403	1371.39020	-171.24293	1389.55920	1372.36448	-211.47155	1345.57974	1232.27936	51.44498	1277.53550	1026.56731	6.20480	1284.65421	1044.54159	75.91599	1332.97219	918.28412	112.24168	1343.25017	782.68803	134.81374	1316.13117	784.91228	154.45429	1388.92944	1252.66006	-424.27574	1430.99410	1019.28847	-361.81822	1450.87578	1047.50114	-435.97799	1561.59877	1020.61818	-410.18124	1695.06165	941.97937	-383.64042	1684.21206	919.64225	-407.26802	1369.79412	878.76291	-56.56668	1350.90864	858.89569	-261.20963	1379.38646	872.70335	-72.82962	1357.94231	866.86320	-236.80150	
